<svg id="Слой_1" data-name="Слой 1" xmlns="http://www.w3.org/2000/svg" viewBox="0 0 3046.7 875.7"><defs><style>.cls-1{fill:#fff;}.cls-2{fill:#8ed6fb;}.cls-3{fill:#1c78c0;}.cls-4,.cls-5{fill:#f5fafa;}.cls-5{font-size:235px;font-family:Arial-Black, Arial Black;}.cls-6{letter-spacing:-0.02em;}</style></defs><title>Монтажная область 1</title><path class="cls-1" d="M387,0,774,218.9V656.8L387,875.7,0,656.8V218.9Z"/><path class="cls-2" d="M704.9,641.7,399.8,814.3V679.9L589.9,575.3Zm20.9-18.9V261.9L614.2,326.4v232ZM67.9,641.7,373,814.3V679.9L182.8,575.3ZM47,622.8V261.9l111.6,64.5v232ZM60.1,238.5,373,61.5V191.4L172.5,301.7l-1.6.9Zm652.6,0L399.8,61.5V191.4L600.3,301.6l1.6.9Z"/><path class="cls-3" d="M373,649.3,185.4,546.1V341.8L373,450.1Zm26.8,0L587.4,546.2V341.8L399.8,450.1ZM198.1,318.2,386.4,214.7,574.7,318.2,386.4,426.9Z"/><path class="cls-4" d="M1073.73,464.8h82.5l84.1-280.2h-80.4l-49.8,198.8L1057,184.6h-69.6l-53.6,198.8-49.3-198.8h-80.4l83.6,280.2h82.5l52-179.5Zm170.9-139.3c0,84.1,57.3,146.3,147.4,146.3,69.7,0,107.2-41.8,117.9-61.6l-48.8-37c-8,11.8-30,34.3-68.1,34.3-41.3,0-71.3-26.8-72.9-64.3h197.3c.5-5.4.5-10.7.5-16.1,0-91.6-49.3-149.5-136.1-149.5-79.9,0-137.2,63.2-137.2,147.9Zm77.7-30.6c3.2-32.1,25.7-56.8,60.6-56.8,33.8,0,58.4,22.5,60,56.8Zm223.5,169.9h69.7V435.9c7.5,9.1,35.4,35.9,83.1,35.9,80.4,0,137.2-60.5,137.2-146.8,0-86.8-52.5-147.3-132.9-147.3-48.2,0-76.1,26.8-83.1,36.4V77.4h-73.9V464.8Zm71.8-139.3c0-52.5,31.1-82.5,71.8-82.5,42.9,0,71.8,33.8,71.8,82.5,0,49.8-30,80.9-71.8,80.9-45,0-71.8-36.5-71.8-80.9Zm247,239.5h73.9V435.8c7,9.1,34.8,35.9,83.1,35.9,80.4,0,132.9-60.5,132.9-147.3,0-85.7-56.8-146.8-137.2-146.8-47.7,0-75.6,26.8-83.1,36.4V184.5h-69.7V565Zm71.8-241.1c0-44.5,26.8-80.9,71.8-80.9,41.8,0,71.8,31.1,71.8,80.9,0,48.8-28.9,82.5-71.8,82.5-40.7,0-71.8-30-71.8-82.5Zm231.5,54.1c0,58.9,48.2,93.8,105,93.8,32.2,0,53.6-9.6,68.1-25.2l4.8,18.2h65.4V287.4c0-62.7-26.8-109.8-116.8-109.8-42.9,0-85.2,16.1-110.4,33.2l27.9,50.4a165.18,165.18,0,0,1,74.5-19.8c32.7,0,50.9,16.6,50.9,41.3v18.2c-10.2-7-32.2-15.5-60.6-15.5-65.4-.1-108.8,37.4-108.8,92.6Zm73.9-2.2c0-23,19.8-39.1,48.2-39.1s48.8,14.5,48.8,39.1c0,23.6-20.4,38.6-48.2,38.6s-48.8-15.5-48.8-38.6Zm348.9,30.6c-46.6,0-79.8-33.8-79.8-81.4,0-45,29.5-82,77.2-82a95.19,95.19,0,0,1,65.39,26.8l20.9-62.2a142.56,142.56,0,0,0-88.4-30c-85.19,0-149,62.7-149,147.9s62.2,146.3,149.5,146.3a141,141,0,0,0,87.31-30L2654,381.3c-12.39,10.1-34.89,25.1-63.3,25.1Zm110.9,58.4h73.89V320.1l93.81,144.7h86.8L2850,311.5l98.61-127h-83.11l-90,117.9V77.4h-73.89Z"/><text class="cls-5" transform="translate(1138.12 762.78)">Co<tspan class="cls-6" x="339.53" y="0">n</tspan><tspan x="491.58" y="0">fig</tspan><tspan class="cls-6" x="818.03" y="0"> </tspan><tspan x="891.7" y="0">utils</tspan></text></svg>