<?xml version="1.0" encoding="utf-8"?>
<!-- Generator: Adobe Illustrator 22.0.0, SVG Export Plug-In . SVG Version: 6.00 Build 0)  -->
<svg version="1.1" id="Слой_1" xmlns="http://www.w3.org/2000/svg" xmlns:xlink="http://www.w3.org/1999/xlink" x="0px" y="0px"
	 viewBox="0 0 3046.7 875.7" style="enable-background:new 0 0 3046.7 875.7;" xml:space="preserve">
<style type="text/css">
	.st0{fill:#FFFFFF;}
	.st1{fill:#8ED6FB;}
	.st2{fill:#1C78C0;}
	.st3{fill:#C5C9C9;}
	.st4{font-family:'Arial-Black';}
	.st5{font-size:235px;}
	.st6{letter-spacing:-4;}
</style>
<title>Монтажная область 1</title>
<path class="st0" d="M387,0l387,218.9v437.9L387,875.7L0,656.8V218.9L387,0z"/>
<path class="st1" d="M704.9,641.7L399.8,814.3V679.9l190.1-104.6L704.9,641.7z M725.8,622.8V261.9l-111.6,64.5v232L725.8,622.8z
	 M67.9,641.7L373,814.3V679.9L182.8,575.3L67.9,641.7z M47,622.8V261.9l111.6,64.5v232L47,622.8z M60.1,238.5L373,61.5v129.9
	L172.5,301.7l-1.6,0.9L60.1,238.5z M712.7,238.5l-312.9-177v129.9l200.5,110.2l1.6,0.9L712.7,238.5z"/>
<path class="st2" d="M373,649.3L185.4,546.1V341.8L373,450.1V649.3z M399.8,649.3l187.6-103.1V341.8L399.8,450.1V649.3z
	 M198.1,318.2l188.3-103.5l188.3,103.5L386.4,426.9L198.1,318.2z"/>
<path class="st3" d="M1073.7,464.8h82.5l84.1-280.2h-80.4l-49.8,198.8L1057,184.6h-69.6l-53.6,198.8l-49.3-198.8h-80.4l83.6,280.2
	h82.5l52-179.5L1073.7,464.8z M1244.6,325.5c0,84.1,57.3,146.3,147.4,146.3c69.7,0,107.2-41.8,117.9-61.6l-48.8-37
	c-8,11.8-30,34.3-68.1,34.3c-41.3,0-71.3-26.8-72.9-64.3h197.3c0.5-5.4,0.5-10.7,0.5-16.1c0-91.6-49.3-149.5-136.1-149.5
	C1301.9,177.6,1244.6,240.8,1244.6,325.5L1244.6,325.5z M1322.3,294.9c3.2-32.1,25.7-56.8,60.6-56.8c33.8,0,58.4,22.5,60,56.8
	H1322.3z M1545.8,464.8h69.7v-28.9c7.5,9.1,35.4,35.9,83.1,35.9c80.4,0,137.2-60.5,137.2-146.8c0-86.8-52.5-147.3-132.9-147.3
	c-48.2,0-76.1,26.8-83.1,36.4V77.4h-73.9L1545.8,464.8L1545.8,464.8z M1617.6,325.5c0-52.5,31.1-82.5,71.8-82.5
	c42.9,0,71.8,33.8,71.8,82.5c0,49.8-30,80.9-71.8,80.9C1644.4,406.4,1617.6,369.9,1617.6,325.5z M1864.6,565h73.9V435.8
	c7,9.1,34.8,35.9,83.1,35.9c80.4,0,132.9-60.5,132.9-147.3c0-85.7-56.8-146.8-137.2-146.8c-47.7,0-75.6,26.8-83.1,36.4v-29.5h-69.7
	L1864.6,565L1864.6,565z M1936.4,323.9c0-44.5,26.8-80.9,71.8-80.9c41.8,0,71.8,31.1,71.8,80.9c0,48.8-28.9,82.5-71.8,82.5
	C1967.5,406.4,1936.4,376.4,1936.4,323.9L1936.4,323.9z M2167.9,378c0,58.9,48.2,93.8,105,93.8c32.2,0,53.6-9.6,68.1-25.2l4.8,18.2
	h65.4V287.4c0-62.7-26.8-109.8-116.8-109.8c-42.9,0-85.2,16.1-110.4,33.2l27.9,50.4c22.9-12.4,48.5-19.2,74.5-19.8
	c32.7,0,50.9,16.6,50.9,41.3v18.2c-10.2-7-32.2-15.5-60.6-15.5C2211.3,285.3,2167.9,322.8,2167.9,378L2167.9,378z M2241.8,375.8
	c0-23,19.8-39.1,48.2-39.1s48.8,14.5,48.8,39.1c0,23.6-20.4,38.6-48.2,38.6S2241.8,398.9,2241.8,375.8z M2590.7,406.4
	c-46.6,0-79.8-33.8-79.8-81.4c0-45,29.5-82,77.2-82c24.4,0.2,47.8,9.8,65.4,26.8l20.9-62.2c-25.3-19.6-56.4-30.2-88.4-30
	c-85.2,0-149,62.7-149,147.9s62.2,146.3,149.5,146.3c31.6,0.1,62.4-10.5,87.3-30l-19.8-60.5C2641.6,391.4,2619.1,406.4,2590.7,406.4
	L2590.7,406.4z M2701.6,464.8h73.9V320.1l93.8,144.7h86.8L2850,311.5l98.6-127h-83.1l-90,117.9v-225h-73.9L2701.6,464.8z"/>
<text transform="matrix(1 0 0 1 1138.12 762.78)" class="st3 st4 st5">Co</text>
<text transform="matrix(1 0 0 1 1477.65 762.78)" class="st3 st4 st5 st6">n</text>
<text transform="matrix(1 0 0 1 1629.7 762.78)" class="st3 st4 st5">fig</text>
<text transform="matrix(1 0 0 1 1956.15 762.78)" class="st3 st4 st5 st6"> </text>
<text transform="matrix(1 0 0 1 2029.8201 762.78)" class="st3 st4 st5">utils</text>
</svg>
